<svg xmlns="http://www.w3.org/2000/svg" width="23" height="24" fill="none" viewBox="0 0 23 24"><path fill="url(#paint0_linear_2_6)" d="M11.58 4.07V1C11.58 0.734784 11.6854 0.480429 11.8729 0.292893C12.0604 0.105357 12.3148 0 12.58 0C12.8452 0 13.0996 0.105357 13.2871 0.292893C13.4746 0.480429 13.58 0.734784 13.58 1V4.07C13.58 4.33522 13.4746 4.58957 13.2871 4.77711C13.0996 4.96464 12.8452 5.07 12.58 5.07C12.3148 5.07 12.0604 4.96464 11.8729 4.77711C11.6854 4.58957 11.58 4.33522 11.58 4.07ZM18.58 7.56C18.7116 7.56076 18.8421 7.53554 18.9639 7.48577C19.0857 7.43601 19.1966 7.36268 19.29 7.27L21.48 5.1C21.6663 4.91264 21.7708 4.65919 21.7708 4.395C21.7708 4.13081 21.6663 3.87736 21.48 3.69C21.2926 3.50375 21.0392 3.39921 20.775 3.39921C20.5108 3.39921 20.2574 3.50375 20.07 3.69L17.9 5.86C17.763 5.99977 17.67 6.17669 17.6325 6.36882C17.5951 6.56095 17.6148 6.75985 17.6894 6.94085C17.7639 7.12185 17.8899 7.277 18.0518 7.38706C18.2137 7.49712 18.4043 7.55725 18.6 7.56H18.58ZM5.85 17.9L3.68 20.07C3.58627 20.163 3.51188 20.2736 3.46111 20.3954C3.41034 20.5173 3.3842 20.648 3.3842 20.78C3.3842 20.912 3.41034 21.0427 3.46111 21.1646C3.51188 21.2864 3.58627 21.397 3.68 21.49C3.77296 21.5837 3.88356 21.6581 4.00542 21.7089C4.12728 21.7597 4.25799 21.7858 4.39 21.7858C4.52201 21.7858 4.65272 21.7597 4.77458 21.7089C4.89644 21.6581 5.00704 21.5837 5.1 21.49L7.27 19.32C7.36324 19.2268 7.4372 19.1161 7.48766 18.9942C7.53812 18.8724 7.56409 18.7419 7.56409 18.61C7.56409 18.4781 7.53812 18.3476 7.48766 18.2257C7.4372 18.1039 7.36324 17.9932 7.27 17.9C7.17676 17.8068 7.06607 17.7328 6.94425 17.6823C6.82243 17.6319 6.69186 17.6059 6.56 17.6059C6.42814 17.6059 6.29757 17.6319 6.17575 17.6823C6.05393 17.7328 5.94324 17.8068 5.85 17.9ZM5.06 12.64C5.06 12.3748 4.95464 12.1204 4.76711 11.9329C4.57957 11.7454 4.32522 11.64 4.06 11.64H1C0.734784 11.64 0.48043 11.7454 0.292893 11.9329C0.105357 12.1204 0 12.3748 0 12.64C0 12.9052 0.105357 13.1596 0.292893 13.3471C0.48043 13.5346 0.734784 13.64 1 13.64H4.06C4.32522 13.64 4.57957 13.5346 4.76711 13.3471C4.95464 13.1596 5.06 12.9052 5.06 12.64ZM5.06 3.74C4.86978 3.62544 4.64685 3.57744 4.42634 3.60359C4.20583 3.62973 4.0003 3.72852 3.84215 3.88438C3.68399 4.04025 3.58221 4.24432 3.55285 4.46442C3.52349 4.68452 3.56823 4.90813 3.68 5.1L5.85 7.27C5.94344 7.36268 6.05426 7.43601 6.17609 7.48577C6.29793 7.53554 6.42839 7.56076 6.56 7.56C6.69161 7.56076 6.82207 7.53554 6.94391 7.48577C7.06574 7.43601 7.17656 7.36268 7.27 7.27C7.45625 7.08264 7.56079 6.82919 7.56079 6.565C7.56079 6.30081 7.45625 6.04736 7.27 5.86L5.06 3.74ZM22.63 23.04C22.4426 23.2262 22.1892 23.3308 21.925 23.3308C21.6608 23.3308 21.4074 23.2262 21.22 23.04L17.59 19.41L15.01 22.76C14.9168 22.881 14.7972 22.9791 14.6603 23.0467C14.5233 23.1143 14.3727 23.1496 14.22 23.15H14.05C13.8703 23.1186 13.7027 23.0386 13.5652 22.9187C13.4277 22.7989 13.3256 22.6437 13.27 22.47L9.76 11.34C9.70304 11.1646 9.69568 10.9769 9.73874 10.7976C9.78179 10.6183 9.87359 10.4544 10.004 10.324C10.1344 10.1936 10.2983 10.1018 10.4776 10.0587C10.6569 10.0157 10.8446 10.023 11.02 10.08L22.09 13.64C22.2653 13.6944 22.4222 13.7961 22.5436 13.9337C22.6649 14.0714 22.746 14.2398 22.7781 14.4206C22.8101 14.6013 22.7917 14.7873 22.725 14.9583C22.6584 15.1293 22.5459 15.2787 22.4 15.39L19.05 17.97L22.67 21.59C22.8532 21.7769 22.9559 22.0282 22.9559 22.29C22.9559 22.5518 22.8532 22.8031 22.67 22.99L22.63 23.04ZM16.74 17.24L16.81 17.18L16.88 17.12L19.62 15.01L12.21 12.64L14.58 20.04L16.74 17.24Z"/><defs><linearGradient id="paint0_linear_2_6" x1="1.5" x2="22" y1="9.5" y2="11" gradientUnits="userSpaceOnUse"><stop stop-color="#595BD4"/><stop offset="1" stop-color="#FE9526"/></linearGradient></defs></svg>