<svg width="29" height="26" viewBox="0 0 29 26" fill="none" xmlns="http://www.w3.org/2000/svg">
<path fill-rule="evenodd" clip-rule="evenodd" d="M10.4979 0C8.53987 0 6.88387 1.266 6.26787 3.017C5.42143 3.05924 4.60416 3.33981 3.91025 3.82635C3.21634 4.3129 2.67405 4.98563 2.34587 5.767C2.02515 6.54067 1.92746 7.38868 2.06387 8.215C1.27977 8.84215 0.682379 9.67204 0.336507 10.6146C-0.00936577 11.5572 -0.090514 12.5766 0.101865 13.562C0.353135 14.8364 1.04749 15.9807 2.06187 16.792C1.94613 17.5086 2.00565 18.2426 2.23535 18.9311C2.46505 19.6197 2.85809 20.2424 3.38087 20.746C4.16331 21.4926 5.18863 21.9321 6.26887 21.984C6.96887 23.974 8.96487 25.242 11.0859 24.963C12.6009 24.763 13.8439 23.81 14.4979 22.521C15.1519 23.811 16.3949 24.763 17.9099 24.963C20.0299 25.242 22.0279 23.973 22.7269 21.984C23.8071 21.9321 24.8324 21.4926 25.6149 20.746C26.1375 20.2425 26.5304 19.62 26.7601 18.9316C26.9898 18.2432 27.0494 17.5094 26.9339 16.793C27.9482 15.9817 28.6426 14.8374 28.8939 13.563C29.0864 12.5774 29.0054 11.5579 28.6595 10.6151C28.3136 9.67229 27.7161 8.84223 26.9319 8.215C27.0619 7.404 26.9799 6.558 26.6499 5.767C26.3217 4.98563 25.7794 4.3129 25.0855 3.82635C24.3916 3.33981 23.5743 3.05924 22.7279 3.017C22.1119 1.267 20.4559 0 18.4979 0C16.7479 0 15.2419 1.016 14.4979 2.48C13.7539 1.016 12.2479 0 10.4979 0ZM10.4979 1C12.4369 1 13.9979 2.56 13.9979 4.5C13.9975 4.511 13.9975 4.522 13.9979 4.533V20.5C13.9987 21.3017 13.7239 22.0793 13.2195 22.7025C12.7151 23.3256 12.0117 23.7564 11.2275 23.9226C10.4432 24.0888 9.62558 23.9804 8.91176 23.6154C8.19795 23.2504 7.63132 22.6511 7.30687 21.918C7.42487 21.896 7.54386 21.878 7.66186 21.848C7.7901 21.8138 7.89949 21.73 7.96597 21.6152C8.03245 21.5003 8.05058 21.3637 8.01637 21.2355C7.98215 21.1073 7.8984 20.9979 7.78353 20.9314C7.66867 20.8649 7.5321 20.8468 7.40387 20.881C6.82202 21.0362 6.21 21.039 5.62677 20.8891C5.04353 20.7392 4.50873 20.4416 4.07387 20.025C3.7212 19.6848 3.44404 19.2742 3.26039 18.8199C3.07674 18.3656 2.9907 17.8777 3.00787 17.388C3.34587 17.561 3.69787 17.713 4.07387 17.814C4.2021 17.8485 4.33877 17.8306 4.45383 17.7643C4.56888 17.698 4.65289 17.5887 4.68737 17.4605C4.72184 17.3323 4.70397 17.1956 4.63768 17.0805C4.57138 16.9655 4.4621 16.8815 4.33387 16.847C3.56415 16.6421 2.86275 16.2363 2.30155 15.6711C1.74035 15.1058 1.33953 14.4016 1.14018 13.6304C0.940823 12.8592 0.950102 12.0489 1.16706 11.2825C1.38403 10.5161 1.80087 9.82123 2.37487 9.269C2.59587 9.786 2.90387 10.271 3.31587 10.683C3.36199 10.7308 3.41716 10.7688 3.47816 10.7951C3.53917 10.8213 3.60478 10.835 3.67116 10.8356C3.73755 10.8362 3.80339 10.8236 3.86484 10.7984C3.92629 10.7733 3.98212 10.7361 4.02906 10.6892C4.07601 10.6423 4.11314 10.5864 4.13828 10.525C4.16342 10.4635 4.17607 10.3977 4.17549 10.3313C4.17491 10.2649 4.16112 10.1993 4.13492 10.1383C4.10871 10.0773 4.07062 10.0221 4.02287 9.976C3.56045 9.51397 3.23671 8.93165 3.08833 8.29504C2.93995 7.65842 2.97287 6.99297 3.18336 6.37411C3.39384 5.75525 3.77348 5.20772 4.27923 4.79359C4.78499 4.37946 5.39664 4.11528 6.04487 4.031C6.02787 4.187 5.99787 4.339 5.99787 4.5C5.99787 4.63261 6.05054 4.75979 6.14431 4.85355C6.23808 4.94732 6.36526 5 6.49787 5C6.63047 5 6.75765 4.94732 6.85142 4.85355C6.94519 4.75979 6.99787 4.63261 6.99787 4.5C6.99787 2.56 8.55887 1 10.4979 1ZM18.4979 1C20.4369 1 21.9979 2.56 21.9979 4.5C21.9979 4.63261 22.0505 4.75979 22.1443 4.85355C22.2381 4.94732 22.3653 5 22.4979 5C22.6305 5 22.7577 4.94732 22.8514 4.85355C22.9452 4.75979 22.9979 4.63261 22.9979 4.5C22.9979 4.34 22.9679 4.187 22.9509 4.031C23.5995 4.11457 24.2117 4.37835 24.718 4.79239C25.2242 5.20643 25.6042 5.75413 25.8148 6.37329C26.0254 6.99246 26.0581 7.65827 25.9093 8.2951C25.7605 8.93194 25.436 9.51429 24.9729 9.976C24.9251 10.0221 24.887 10.0773 24.8608 10.1383C24.8346 10.1993 24.8208 10.2649 24.8202 10.3313C24.8197 10.3977 24.8323 10.4635 24.8575 10.525C24.8826 10.5864 24.9197 10.6423 24.9667 10.6892C25.0136 10.7361 25.0694 10.7733 25.1309 10.7984C25.1923 10.8236 25.2582 10.8362 25.3246 10.8356C25.391 10.835 25.4566 10.8213 25.5176 10.7951C25.5786 10.7688 25.6337 10.7308 25.6799 10.683C26.0919 10.271 26.3999 9.786 26.6209 9.269C27.1949 9.82123 27.6117 10.5161 27.8287 11.2825C28.0456 12.0489 28.0549 12.8592 27.8556 13.6304C27.6562 14.4016 27.2554 15.1058 26.6942 15.6711C26.133 16.2363 25.4316 16.6421 24.6619 16.847C24.5984 16.8641 24.5389 16.8935 24.4867 16.9336C24.4346 16.9736 24.3909 17.0236 24.3581 17.0805C24.2918 17.1956 24.2739 17.3323 24.3084 17.4605C24.3428 17.5887 24.4268 17.698 24.5419 17.7643C24.657 17.8306 24.7936 17.8485 24.9219 17.814C25.2979 17.714 25.6499 17.561 25.9879 17.388C26.005 17.8777 25.919 18.3656 25.7353 18.8199C25.5517 19.2742 25.2745 19.6848 24.9219 20.025C24.487 20.4416 23.9522 20.7392 23.369 20.8891C22.7857 21.039 22.1737 21.0362 21.5919 20.881C21.4646 20.8493 21.33 20.8688 21.217 20.9355C21.104 21.0021 21.0217 21.1104 20.9879 21.2371C20.954 21.3639 20.9713 21.4988 21.0361 21.6129C21.1008 21.727 21.2077 21.811 21.3339 21.847C21.4519 21.879 21.5709 21.896 21.6889 21.917C21.3644 22.65 20.7979 23.2493 20.0842 23.6143C19.3705 23.9793 18.553 24.0878 17.7688 23.9217C16.9845 23.7557 16.2812 23.325 15.7768 22.7021C15.2723 22.0791 14.9973 21.3016 14.9979 20.5V4.5C14.9979 2.562 16.5589 1 18.4979 1ZM10.4479 2C10.3153 2.00663 10.1907 2.06567 10.1016 2.16412C10.0126 2.26258 9.96624 2.39239 9.97287 2.525C9.9795 2.65761 10.0385 2.78215 10.137 2.87123C10.2354 2.96031 10.3653 3.00663 10.4979 3C11.3319 3 11.9979 3.665 11.9979 4.5C11.9979 4.63261 12.0505 4.75979 12.1443 4.85355C12.2381 4.94732 12.3653 5 12.4979 5C12.6305 5 12.7577 4.94732 12.8514 4.85355C12.9452 4.75979 12.9979 4.63261 12.9979 4.5C12.9979 3.125 11.8729 2 10.4979 2C10.4812 1.99917 10.4645 1.99917 10.4479 2ZM18.4979 2C17.8355 2.00211 17.2008 2.26618 16.7324 2.73456C16.264 3.20295 16 3.83761 15.9979 4.5C15.9979 4.63261 16.0505 4.75979 16.1443 4.85355C16.2381 4.94732 16.3653 5 16.4979 5C16.6305 5 16.7577 4.94732 16.8514 4.85355C16.9452 4.75979 16.9979 4.63261 16.9979 4.5C16.9979 3.665 17.6639 3 18.4979 3C18.6305 3 18.7577 2.94732 18.8514 2.85355C18.9452 2.75978 18.9979 2.63261 18.9979 2.5C18.9979 2.36739 18.9452 2.24021 18.8514 2.14645C18.7577 2.05268 18.6305 2 18.4979 2ZM6.79087 5.85C6.71103 5.84915 6.63214 5.86744 6.56082 5.90333C6.4895 5.93922 6.4278 5.99167 6.38091 6.05629C6.33401 6.12091 6.30327 6.19582 6.29125 6.27475C6.27924 6.35369 6.28631 6.43436 6.31187 6.51C6.41587 6.822 6.56387 7.112 6.72987 7.39C6.15468 7.30774 5.57009 7.31719 4.99787 7.418C4.86738 7.44187 4.75172 7.5166 4.67633 7.62574C4.60094 7.73489 4.572 7.86951 4.59587 8C4.61973 8.13049 4.69446 8.24615 4.80361 8.32154C4.91275 8.39693 5.04738 8.42587 5.17787 8.402C6.22937 8.20816 7.31555 8.39498 8.24187 8.929C8.2507 8.93461 8.2597 8.93995 8.26887 8.945C8.27218 8.94637 8.27552 8.9477 8.27887 8.949C8.28805 8.95396 8.29739 8.95863 8.30687 8.963C8.31052 8.96438 8.31418 8.96571 8.31787 8.967C8.33134 8.97192 8.34502 8.97626 8.35887 8.98C8.36153 8.98069 8.36419 8.98136 8.36687 8.982C8.37843 8.98509 8.39011 8.98775 8.40187 8.99C8.42263 8.99467 8.44367 8.99801 8.46487 9C8.52683 9.00343 8.58888 8.99529 8.64787 8.976C8.65255 8.97473 8.65722 8.9734 8.66187 8.972C8.68882 8.96258 8.71491 8.95087 8.73987 8.937C8.74389 8.93505 8.74789 8.93305 8.75187 8.931C8.77659 8.91637 8.80001 8.89965 8.82187 8.881C8.82592 8.87773 8.82992 8.8744 8.83387 8.871C8.84251 8.86264 8.85085 8.85396 8.85887 8.845C8.86225 8.84171 8.86558 8.83838 8.86887 8.835C8.88742 8.81378 8.90414 8.79104 8.91887 8.767C8.92192 8.76338 8.92492 8.75971 8.92787 8.756C8.93392 8.74554 8.93959 8.73487 8.94487 8.724C8.94691 8.72036 8.94891 8.71669 8.95087 8.713C8.96324 8.68659 8.97328 8.65916 8.98087 8.631C8.98191 8.62701 8.98292 8.62301 8.98387 8.619C8.987 8.60677 8.98967 8.59443 8.99187 8.582C8.9926 8.57734 8.99327 8.57268 8.99387 8.568C8.99767 8.5395 8.99901 8.51073 8.99787 8.482C8.99793 8.47733 8.99793 8.47267 8.99787 8.468C8.99699 8.45562 8.99566 8.44328 8.99387 8.431C8.99324 8.42733 8.99257 8.42366 8.99187 8.42C8.98461 8.37471 8.97115 8.33063 8.95187 8.289C8.94959 8.28497 8.94725 8.28097 8.94487 8.277C8.93961 8.26579 8.93394 8.25479 8.92787 8.244C8.9259 8.24064 8.9239 8.23731 8.92187 8.234C8.91493 8.22339 8.90759 8.21305 8.89987 8.203C8.89757 8.19964 8.89524 8.1963 8.89287 8.193C8.88525 8.1827 8.87725 8.17269 8.86887 8.163C8.86624 8.15997 8.86357 8.15697 8.86087 8.154C8.85218 8.14534 8.84317 8.137 8.83387 8.129C8.83057 8.12629 8.82723 8.12362 8.82387 8.121C8.81418 8.11262 8.80417 8.10461 8.79387 8.097C8.79089 8.09463 8.78789 8.0923 8.78487 8.09C8.77478 8.08295 8.76444 8.07628 8.75387 8.07C8.05087 7.63971 7.52246 6.97494 7.26187 6.193C7.22922 6.09359 7.16622 6.00692 7.08172 5.94521C6.99722 5.8835 6.8955 5.84985 6.79087 5.849V5.85ZM22.2049 5.85C22.1005 5.85099 21.9991 5.88459 21.9148 5.94609C21.8306 6.0076 21.7676 6.09394 21.7349 6.193C21.474 6.9751 20.9452 7.63989 20.2419 8.07C20.2371 8.07325 20.2325 8.07659 20.2279 8.08C20.2221 8.08322 20.2165 8.08656 20.2109 8.09C20.2075 8.09229 20.2042 8.09463 20.2009 8.097C20.1906 8.10461 20.1806 8.11262 20.1709 8.121C20.1651 8.12587 20.1594 8.13087 20.1539 8.136C20.147 8.14182 20.1404 8.14782 20.1339 8.154C20.1315 8.15731 20.1292 8.16064 20.1269 8.164C20.1185 8.17369 20.1105 8.1837 20.1029 8.194C20.0959 8.20245 20.0892 8.21112 20.0829 8.22C20.0794 8.22659 20.0761 8.23326 20.0729 8.24C20.0673 8.24817 20.062 8.25651 20.0569 8.265C20.0541 8.27095 20.0514 8.27695 20.0489 8.283C20.0468 8.28631 20.0448 8.28964 20.0429 8.293C20.0234 8.33526 20.0099 8.38002 20.0029 8.426C20.0024 8.43266 20.0021 8.43933 20.0019 8.446C20.0004 8.45363 19.999 8.4613 19.9979 8.469C19.9978 8.47333 19.9978 8.47767 19.9979 8.482C19.9969 8.51345 19.9989 8.54493 20.0039 8.576C20.0051 8.58269 20.0064 8.58936 20.0079 8.596C20.009 8.6037 20.0104 8.61137 20.0119 8.619C20.0131 8.62302 20.0145 8.62702 20.0159 8.631C20.024 8.66199 20.035 8.69213 20.0489 8.721C20.0521 8.72606 20.0554 8.73106 20.0589 8.736C20.0621 8.74274 20.0654 8.74941 20.0689 8.756C20.0712 8.7597 20.0735 8.76336 20.0759 8.767C20.0905 8.79138 20.1073 8.81447 20.1259 8.836C20.1292 8.83938 20.1325 8.84271 20.1359 8.846C20.1442 8.85464 20.1529 8.86298 20.1619 8.871C20.1658 8.8744 20.1698 8.87773 20.1739 8.881C20.1957 8.89965 20.2191 8.91637 20.2439 8.931C20.2478 8.93305 20.2518 8.93505 20.2559 8.937C20.2858 8.95351 20.3172 8.96691 20.3499 8.977C20.4083 8.9957 20.4696 9.0035 20.5309 9C20.5521 8.99801 20.5731 8.99467 20.5939 8.99C20.6056 8.98775 20.6173 8.98509 20.6289 8.982C20.6336 8.98074 20.6382 8.9794 20.6429 8.978C20.6547 8.97476 20.6663 8.97109 20.6779 8.967C20.6815 8.96571 20.6852 8.96438 20.6889 8.963C20.7004 8.95809 20.7117 8.95276 20.7229 8.947C20.7266 8.94505 20.7302 8.94305 20.7339 8.941C20.7406 8.93716 20.7473 8.93315 20.7539 8.929L20.7619 8.926C20.7632 8.92534 20.7645 8.92467 20.7659 8.924C21.6894 8.39446 22.7708 8.2095 23.8179 8.402C23.8825 8.41382 23.9488 8.4128 24.013 8.39899C24.0772 8.38518 24.1381 8.35887 24.1921 8.32154C24.2462 8.28421 24.2923 8.2366 24.328 8.18143C24.3636 8.12626 24.388 8.06461 24.3999 8C24.4117 7.93539 24.4107 7.86908 24.3969 7.80487C24.3831 7.74065 24.3567 7.67979 24.3194 7.62574C24.2821 7.5717 24.2345 7.52554 24.1793 7.48989C24.1241 7.45425 24.0625 7.42982 23.9979 7.418C23.4256 7.31719 22.8411 7.30774 22.2659 7.39C22.4319 7.112 22.5799 6.822 22.6839 6.51C22.7094 6.43436 22.7165 6.35369 22.7045 6.27475C22.6925 6.19582 22.6617 6.12091 22.6148 6.05629C22.5679 5.99167 22.5062 5.93922 22.4349 5.90333C22.3636 5.86744 22.2847 5.84915 22.2049 5.85ZM11.0049 7.744C10.9182 7.74734 10.8338 7.77319 10.7602 7.819C10.6865 7.8648 10.626 7.929 10.5846 8.00526C10.5433 8.08153 10.5224 8.16725 10.5242 8.25399C10.526 8.34073 10.5504 8.42551 10.5949 8.5C10.9259 9.07193 11.0587 9.73721 10.9726 10.3924C10.8866 11.0476 10.5864 11.656 10.1189 12.123C10.0711 12.1691 10.033 12.2243 10.0068 12.2853C9.98061 12.3463 9.96682 12.4119 9.96624 12.4783C9.96566 12.5447 9.97831 12.6105 10.0035 12.672C10.0286 12.7334 10.0657 12.7893 10.1127 12.8362C10.1596 12.8831 10.2154 12.9203 10.2769 12.9454C10.3383 12.9706 10.4042 12.9832 10.4706 12.9826C10.537 12.982 10.6026 12.9683 10.6636 12.9421C10.7246 12.9158 10.7797 12.8778 10.8259 12.83C11.448 12.2068 11.8476 11.396 11.9627 10.5229C12.0779 9.64987 11.9022 8.7632 11.4629 8C11.4178 7.91924 11.3513 7.85256 11.2706 7.80737C11.1899 7.76217 11.0983 7.74024 11.0059 7.744H11.0049ZM17.9389 7.744C17.8552 7.74919 17.7741 7.77536 17.7031 7.8201C17.6322 7.86484 17.5736 7.9267 17.5329 8C17.0935 8.7632 16.9179 9.64987 17.033 10.5229C17.1482 11.396 17.5477 12.2068 18.1699 12.83C18.216 12.8778 18.2712 12.9158 18.3322 12.9421C18.3932 12.9683 18.4588 12.982 18.5252 12.9826C18.5916 12.9832 18.6574 12.9706 18.7188 12.9454C18.7803 12.9203 18.8361 12.8831 18.8831 12.8362C18.93 12.7893 18.9671 12.7334 18.9923 12.672C19.0174 12.6105 19.0301 12.5447 19.0295 12.4783C19.0289 12.4119 19.0151 12.3463 18.9889 12.2853C18.9627 12.2243 18.9246 12.1691 18.8769 12.123C18.4092 11.6561 18.1088 11.0478 18.0226 10.3926C17.9363 9.73738 18.0689 9.07203 18.3999 8.5C18.4444 8.42551 18.4687 8.34073 18.4705 8.25399C18.4723 8.16725 18.4515 8.08153 18.4101 8.00526C18.3688 7.929 18.3083 7.8648 18.2346 7.819C18.1609 7.77319 18.0766 7.74734 17.9899 7.744C17.9732 7.74317 17.9555 7.74317 17.9389 7.744ZM2.62787 12.398C2.61118 12.3978 2.59449 12.3985 2.57787 12.4C2.50407 12.4058 2.43248 12.4279 2.36825 12.4647C2.30403 12.5015 2.24878 12.5521 2.20649 12.6128C2.1642 12.6736 2.13593 12.743 2.12372 12.816C2.11151 12.889 2.11565 12.9638 2.13587 13.035C2.31748 13.7137 2.67442 14.3328 3.17087 14.83C3.21699 14.8778 3.27216 14.9158 3.33316 14.9421C3.39417 14.9683 3.45978 14.982 3.52616 14.9826C3.59255 14.9832 3.65839 14.9706 3.71984 14.9454C3.78129 14.9203 3.83712 14.8831 3.88406 14.8362C3.93101 14.7893 3.96814 14.7334 3.99328 14.672C4.01842 14.6105 4.03107 14.5447 4.03049 14.4783C4.02991 14.4119 4.01612 14.3463 3.98992 14.2853C3.96371 14.2243 3.92562 14.1691 3.87787 14.123C3.50528 13.7503 3.23731 13.2861 3.10087 12.777C3.0744 12.6708 3.01379 12.5761 2.92834 12.5077C2.84289 12.4392 2.73733 12.4007 2.62787 12.398ZM26.3699 12.398C26.2603 12.4007 26.1546 12.4394 26.0691 12.5081C25.9837 12.5767 25.9231 12.6716 25.8969 12.778C25.7603 13.2867 25.4923 13.7505 25.1199 14.123C25.0721 14.1691 25.034 14.2243 25.0078 14.2853C24.9816 14.3463 24.9678 14.4119 24.9672 14.4783C24.9667 14.5447 24.9793 14.6105 25.0045 14.672C25.0296 14.7334 25.0667 14.7893 25.1137 14.8362C25.1606 14.8831 25.2164 14.9203 25.2779 14.9454C25.3393 14.9706 25.4052 14.9832 25.4716 14.9826C25.538 14.982 25.6036 14.9683 25.6646 14.9421C25.7256 14.9158 25.7807 14.8778 25.8269 14.83C26.3233 14.3328 26.6803 13.7137 26.8619 13.035C26.8821 12.9639 26.8862 12.8891 26.8741 12.8162C26.8619 12.7433 26.8337 12.6739 26.7916 12.6132C26.7494 12.5525 26.6943 12.5018 26.6302 12.465C26.5661 12.4281 26.4946 12.4059 26.4209 12.4C26.4042 12.3985 26.3866 12.3978 26.3699 12.398ZM9.50187 17.001C9.4563 17.0005 9.41088 17.0062 9.36687 17.018C9.3662 17.018 9.36553 17.018 9.36487 17.018C9.36085 17.0193 9.35685 17.0206 9.35287 17.022C9.34105 17.0256 9.32938 17.0296 9.31787 17.034C9.29297 17.0437 9.26889 17.0554 9.24587 17.069C9.24453 17.0697 9.2432 17.0703 9.24187 17.071C8.31555 17.605 7.22937 17.7918 6.17787 17.598C6.04698 17.5741 5.91197 17.6032 5.80255 17.6789C5.69312 17.7546 5.61823 17.8706 5.59437 18.0015C5.5705 18.1324 5.5996 18.2674 5.67527 18.3768C5.75094 18.4862 5.86698 18.5611 5.99787 18.585C6.57487 18.691 7.15787 18.687 7.72987 18.61C7.55883 18.8883 7.41867 19.1843 7.31187 19.493C7.29112 19.5554 7.28286 19.6212 7.28756 19.6868C7.29226 19.7524 7.30983 19.8164 7.33927 19.8752C7.3687 19.9339 7.40943 19.9863 7.45912 20.0294C7.50881 20.0724 7.56649 20.1053 7.62886 20.126C7.75484 20.1679 7.89231 20.158 8.01102 20.0986C8.12973 20.0391 8.21996 19.935 8.26187 19.809C8.52087 19.032 9.04487 18.369 9.74187 17.939C9.74456 17.9367 9.74722 17.9344 9.74987 17.932C9.75087 17.932 9.75287 17.932 9.75387 17.93C9.76444 17.9237 9.77478 17.917 9.78487 17.91C9.78823 17.9077 9.79156 17.9054 9.79487 17.903C9.80515 17.8957 9.81516 17.888 9.82487 17.88C9.8279 17.8774 9.8309 17.8747 9.83387 17.872C9.84319 17.8637 9.85219 17.855 9.86087 17.846C9.86153 17.8453 9.8622 17.8447 9.86287 17.844C9.92968 17.7731 9.97435 17.6843 9.99137 17.5884C10.0084 17.4925 9.99704 17.3937 9.9587 17.3042C9.92036 17.2146 9.8567 17.1382 9.77554 17.0844C9.69439 17.0305 9.59927 17.0015 9.50187 17.001ZM19.4719 17.001C19.3763 17.0055 19.2839 17.0373 19.2059 17.0927C19.1278 17.148 19.0673 17.2247 19.0314 17.3134C18.9956 17.4022 18.9861 17.4994 19.0039 17.5934C19.0217 17.6875 19.0661 17.7745 19.1319 17.844C19.1329 17.8447 19.1339 17.8453 19.1349 17.846C19.1382 17.8487 19.1415 17.8514 19.1449 17.854C19.1623 17.872 19.181 17.8888 19.2009 17.904C19.2154 17.9141 19.2304 17.9235 19.2459 17.932C19.9471 18.3633 20.4739 19.0279 20.7339 19.809C20.7546 19.8714 20.7874 19.9291 20.8305 19.9787C20.8735 20.0284 20.9259 20.0692 20.9847 20.0986C21.0435 20.128 21.1075 20.1456 21.1731 20.1503C21.2386 20.155 21.3045 20.1467 21.3669 20.126C21.4292 20.1053 21.4869 20.0724 21.5366 20.0294C21.5863 19.9863 21.627 19.9339 21.6565 19.8752C21.6859 19.8164 21.7035 19.7524 21.7082 19.6868C21.7129 19.6212 21.7046 19.5554 21.6839 19.493C21.5771 19.1843 21.4369 18.8883 21.2659 18.61C21.8379 18.687 22.4209 18.69 22.9979 18.585C23.0627 18.5732 23.1245 18.5487 23.1799 18.513C23.2352 18.4773 23.283 18.431 23.3205 18.3768C23.3579 18.3226 23.3844 18.2616 23.3982 18.1972C23.4121 18.1328 23.4132 18.0663 23.4014 18.0015C23.3895 17.9367 23.3651 17.8748 23.3294 17.8195C23.2936 17.7641 23.2474 17.7164 23.1932 17.6789C23.139 17.6414 23.078 17.615 23.0136 17.6011C22.9492 17.5872 22.8827 17.5862 22.8179 17.598C21.7664 17.7918 20.6802 17.605 19.7539 17.071C19.7525 17.0703 19.7512 17.0697 19.7499 17.069C19.7268 17.0554 19.7028 17.0437 19.6779 17.034C19.6664 17.0296 19.6547 17.0256 19.6429 17.022C19.6382 17.0206 19.6336 17.0193 19.6289 17.018C19.6282 17.018 19.6275 17.018 19.6269 17.018C19.5954 17.0099 19.5633 17.0049 19.5309 17.003C19.5116 17.0012 19.4912 17.0005 19.4719 17.001ZM12.4899 19.995C12.3576 19.9971 12.2316 20.0515 12.1394 20.1464C12.0471 20.2412 11.9963 20.3687 11.9979 20.501C11.9979 21.335 11.3319 22.001 10.4979 22.001C10.3653 22.001 10.2381 22.0537 10.1443 22.1474C10.0505 22.2412 9.99787 22.3684 9.99787 22.501C9.99787 22.6336 10.0505 22.7608 10.1443 22.8546C10.2381 22.9483 10.3653 23.001 10.4979 23.001C11.8729 23.001 12.9979 21.876 12.9979 20.501C12.9987 20.4342 12.9861 20.3678 12.9608 20.3059C12.9355 20.2441 12.8981 20.1879 12.8508 20.1407C12.8034 20.0935 12.7471 20.0563 12.6851 20.0313C12.6231 20.0063 12.5567 19.9939 12.4899 19.995ZM16.4569 19.995C16.3304 20.0054 16.2127 20.0634 16.1275 20.1574C16.0422 20.2513 15.9959 20.3742 15.9979 20.501C15.9979 21.876 17.1229 23.001 18.4979 23.001C18.6305 23.001 18.7577 22.9483 18.8514 22.8546C18.9452 22.7608 18.9979 22.6336 18.9979 22.501C18.9979 22.3684 18.9452 22.2412 18.8514 22.1474C18.7577 22.0537 18.6305 22.001 18.4979 22.001C17.6639 22.001 16.9979 21.335 16.9979 20.501C16.9995 20.3687 16.9486 20.2412 16.8564 20.1464C16.7642 20.0515 16.6381 19.9971 16.5059 19.995C16.4895 19.9942 16.4732 19.9942 16.4569 19.995Z" fill="url(#paint0_linear_2_3)"/>
<defs>
<linearGradient id="paint0_linear_2_3" x1="-0.00113461" y1="12.5" x2="26.9979" y2="12.5" gradientUnits="userSpaceOnUse">
<stop stop-color="#6B6B6B"/>
<stop offset="1" stop-color="#9F9F9F"/>
</linearGradient>
</defs>
</svg>
