<svg width="12" height="16" viewBox="0 0 12 16" fill="none" xmlns="http://www.w3.org/2000/svg">
<path d="M5.41315 0.00072693C4.13155 0.0187984 2.89675 0.48512 1.92315 1.31873C0.94968 2.15283 0.297831 3.30051 0.0800389 4.56381C-0.137753 5.82711 0.0921705 7.12682 0.730148 8.23873L1.59715 7.74073C1.07354 6.83139 0.88449 5.76755 1.06274 4.73349C1.24099 3.69942 1.77531 2.76028 2.57315 2.07873C3.36981 1.39601 4.3802 1.01348 5.42926 0.997406C6.47831 0.981334 7.49994 1.33273 8.31715 1.99073C9.13571 2.64724 9.6988 3.56944 9.90884 4.59752C10.1189 5.6256 9.96262 6.69476 9.46715 7.61973L10.3491 8.08973C10.9521 6.95879 11.1415 5.6529 10.8846 4.39728C10.6277 3.14166 9.94077 2.01504 8.94215 1.21173C7.94334 0.408314 6.69481 -0.0201277 5.41315 0.00072693ZM5.51715 2.00073C4.70715 2.00073 3.90015 2.27473 3.24515 2.82873C2.6112 3.367 2.18931 4.11314 2.05484 4.93384C1.92038 5.75453 2.08212 6.5963 2.51115 7.30873L3.36615 6.79173C3.05766 6.28328 2.94093 5.68136 3.03701 5.09446C3.13308 4.50756 3.43564 3.97427 3.89015 3.59073C4.3433 3.20544 4.91919 2.99471 5.51399 2.99655C6.1088 2.99838 6.68338 3.21265 7.13415 3.60073C7.58628 3.98726 7.8855 4.52256 7.9779 5.11017C8.07031 5.69778 7.94982 6.29908 7.63815 6.80573L8.49115 7.32673C8.92457 6.61699 9.09144 5.77623 8.96192 4.95476C8.83239 4.13329 8.41493 3.38467 7.78415 2.84273C7.15284 2.30108 6.34897 2.00251 5.51715 2.00073ZM5.51115 4.00273C4.68815 4.00273 4.01115 4.67973 4.01115 5.50273V9.00073H3.52115C2.69815 9.00073 2.02815 9.68073 2.02115 10.4967L2.00915 11.5557C2.00915 13.9837 4.03015 15.9927 6.50915 15.9927C8.98715 15.9927 11.0091 13.9867 11.0071 11.5787L11.0031 8.99273H7.01115V5.50273C7.01115 4.67973 6.33315 4.00273 5.51115 4.00273ZM5.51115 5.00273C5.79615 5.00273 6.01115 5.21673 6.01115 5.50273V9.49673H6.01315V9.99273H10.0051L10.0071 11.5827C10.0091 13.4287 8.44915 14.9947 6.50915 14.9947C4.56915 14.9947 3.00915 13.4307 3.00915 11.5577L3.02115 10.5047C3.01924 10.4384 3.03083 10.3723 3.05523 10.3105C3.07963 10.2488 3.11632 10.1927 3.16308 10.1455C3.20984 10.0984 3.2657 10.0612 3.32725 10.0364C3.3888 10.0115 3.45477 9.99934 3.52115 10.0007H4.01115V11.9987H5.01115V5.50273C5.01115 5.21673 5.22515 5.00273 5.51115 5.00273Z" fill="url(#paint0_linear_2_8)"/>
<defs>
<linearGradient id="paint0_linear_2_8" x1="0.00114457" y1="4.99673" x2="12.0011" y2="5.49673" gradientUnits="userSpaceOnUse">
<stop stop-color="#595BD4"/>
<stop offset="1" stop-color="#FE9526"/>
</linearGradient>
</defs>
</svg>
